<?xml version="1.0" encoding="UTF-8" standalone="no" ?>
<!DOCTYPE svg PUBLIC "-//W3C//DTD SVG 1.1//EN" "http://www.w3.org/Graphics/SVG/1.1/DTD/svg11.dtd">
<svg xmlns="http://www.w3.org/2000/svg" xmlns:xlink="http://www.w3.org/1999/xlink" version="1.1" width="400" height="400" viewBox="0 0 400 400" xml:space="preserve">
<desc>Created with Fabric.js 3.6.2</desc>
<defs>
</defs>
<g transform="matrix(0.2 0 0 0.2 200 200)"  >
<path style="stroke: none; stroke-width: 1; stroke-dasharray: none; stroke-linecap: butt; stroke-dashoffset: 0; stroke-linejoin: miter; stroke-miterlimit: 4; fill: rgb(0,0,0); fill-rule: nonzero; opacity: 1;"  transform=" translate(-512, -499.38)" d="M 512 0 C 229.25 0 0 229.25 0 512 c 0 226.25 146.688 418.125 350.156 485.812 c 25.594 4.688 34.938 -11.125 34.938 -24.625 c 0 -12.188 -0.469 -52.562 -0.719 -95.312 C 242 908.812 211.906 817.5 211.906 817.5 c -23.312 -59.125 -56.844 -74.875 -56.844 -74.875 c -46.531 -31.75 3.53 -31.125 3.53 -31.125 c 51.406 3.562 78.47 52.75 78.47 52.75 c 45.688 78.25 119.875 55.625 149 42.5 c 4.654 -33 17.904 -55.625 32.5 -68.375 C 304.906 725.438 185.344 681.5 185.344 485.312 c 0 -55.938 19.969 -101.562 52.656 -137.406 c -5.219 -13 -22.844 -65.094 5.062 -135.562 c 0 0 42.938 -13.75 140.812 52.5 c 40.812 -11.406 84.594 -17.031 128.125 -17.219 c 43.5 0.188 87.312 5.875 128.188 17.281 c 97.688 -66.312 140.688 -52.5 140.688 -52.5 c 28 70.531 10.375 122.562 5.125 135.5 c 32.812 35.844 52.625 81.469 52.625 137.406 c 0 196.688 -119.75 240 -233.812 252.688 c 18.438 15.875 34.75 47 34.75 94.75 c 0 68.438 -0.688 123.625 -0.688 140.5 c 0 13.625 9.312 29.562 35.25 24.562 C 877.438 930 1024 738.125 1024 512 C 1024 229.25 794.75 0 512 0 z" stroke-linecap="round" />
</g>
</svg>